<svg width="27" height="22" viewBox="0 0 27 22" fill="none" xmlns="http://www.w3.org/2000/svg">
<path fill-rule="evenodd" clip-rule="evenodd" d="M3.51949 8.80971C3.69635 9.18614 4.06519 9.43546 4.48042 9.45925L15.7769 10.1065C16.1018 10.1251 16.3551 10.395 16.3531 10.7204C16.3511 11.0459 16.0945 11.3127 15.7694 11.3273L4.51897 11.8333C4.09529 11.8524 3.7177 12.1064 3.54038 12.4917L0.103839 19.9581C-0.0896582 20.3785 -0.00809961 20.8744 0.309866 21.2106C0.627831 21.5469 1.11832 21.6561 1.54889 21.4864L26.0186 11.8432C26.4515 11.6726 26.7362 11.2547 26.7364 10.7893C26.7366 10.324 26.4523 9.90579 26.0195 9.73479L1.58152 0.0793298C1.14942 -0.0913944 0.65688 0.0189008 0.338855 0.357604C0.0208296 0.696307 -0.0582621 1.19481 0.139307 1.61531L3.51949 8.80971Z" fill="#2EBFAB"/>
</svg>
