<svg width="90" height="90" viewBox="0 0 90 90" fill="none" xmlns="http://www.w3.org/2000/svg">
<path d="M11.8473 36.7661C12.4427 38.3371 13.6843 39.3776 15.082 39.4768L53.1081 42.178C54.2017 42.2557 55.0545 43.3822 55.0478 44.7403C55.041 46.0984 54.1772 47.2118 53.0828 47.2728L15.2118 49.3848C13.7856 49.4643 12.5145 50.5244 11.9176 52.1322L0.349544 83.2925C-0.301807 85.047 -0.0272649 87.1162 1.04307 88.5196C2.1134 89.923 3.76448 90.3786 5.21386 89.6704L87.5837 49.4261C89.0411 48.7141 89.9993 46.9699 90 45.0278C90.0007 43.0857 89.0437 41.3404 87.5868 40.6268L5.32371 0.331072C3.86916 -0.381422 2.21119 0.0788797 1.14065 1.49241C0.0701167 2.90594 -0.196122 4.98635 0.468936 6.74128L11.8473 36.7661Z" fill="#2EBFAB"/>
</svg>